<mxfile host="app.diagrams.net" modified="2022-12-07T17:59:40.497Z" agent="5.0 (Windows NT 10.0; Win64; x64) AppleWebKit/537.36 (KHTML, like Gecko) Chrome/108.0.0.0 Safari/537.36" etag="WAXqgdqDMtpZ6RrbPr1o" version="20.6.0" type="github">
  <diagram name="Page-1" id="e7e014a7-5840-1c2e-5031-d8a46d1fe8dd">
    <mxGraphModel dx="2302" dy="2025" grid="1" gridSize="10" guides="1" tooltips="1" connect="1" arrows="1" fold="1" page="1" pageScale="1" pageWidth="1169" pageHeight="826" background="none" math="0" shadow="0">
      <root>
        <mxCell id="0" />
        <mxCell id="1" parent="0" />
        <mxCell id="4E-hsFMsyUo2UfAFvhTs-70" value="Item" style="swimlane;fontStyle=1;align=center;verticalAlign=top;childLayout=stackLayout;horizontal=1;startSize=26;horizontalStack=0;resizeParent=1;resizeParentMax=0;resizeLast=0;collapsible=1;marginBottom=0;" parent="1" vertex="1">
          <mxGeometry x="120" y="40" width="160" height="138" as="geometry" />
        </mxCell>
        <mxCell id="4E-hsFMsyUo2UfAFvhTs-75" value="+ Title : Title" style="text;strokeColor=none;fillColor=none;align=left;verticalAlign=top;spacingLeft=4;spacingRight=4;overflow=hidden;rotatable=0;points=[[0,0.5],[1,0.5]];portConstraint=eastwest;" parent="4E-hsFMsyUo2UfAFvhTs-70" vertex="1">
          <mxGeometry y="26" width="160" height="26" as="geometry" />
        </mxCell>
        <mxCell id="4E-hsFMsyUo2UfAFvhTs-76" value="+ Description : Description" style="text;strokeColor=none;fillColor=none;align=left;verticalAlign=top;spacingLeft=4;spacingRight=4;overflow=hidden;rotatable=0;points=[[0,0.5],[1,0.5]];portConstraint=eastwest;" parent="4E-hsFMsyUo2UfAFvhTs-70" vertex="1">
          <mxGeometry y="52" width="160" height="26" as="geometry" />
        </mxCell>
        <mxCell id="4E-hsFMsyUo2UfAFvhTs-77" value="+ ImageUrl: ImageUrl" style="text;strokeColor=none;fillColor=none;align=left;verticalAlign=top;spacingLeft=4;spacingRight=4;overflow=hidden;rotatable=0;points=[[0,0.5],[1,0.5]];portConstraint=eastwest;" parent="4E-hsFMsyUo2UfAFvhTs-70" vertex="1">
          <mxGeometry y="78" width="160" height="26" as="geometry" />
        </mxCell>
        <mxCell id="4E-hsFMsyUo2UfAFvhTs-72" value="" style="line;strokeWidth=1;fillColor=none;align=left;verticalAlign=middle;spacingTop=-1;spacingLeft=3;spacingRight=3;rotatable=0;labelPosition=right;points=[];portConstraint=eastwest;strokeColor=inherit;" parent="4E-hsFMsyUo2UfAFvhTs-70" vertex="1">
          <mxGeometry y="104" width="160" height="8" as="geometry" />
        </mxCell>
        <mxCell id="4E-hsFMsyUo2UfAFvhTs-73" value="+ static Create(): Item" style="text;strokeColor=none;fillColor=none;align=left;verticalAlign=top;spacingLeft=4;spacingRight=4;overflow=hidden;rotatable=0;points=[[0,0.5],[1,0.5]];portConstraint=eastwest;" parent="4E-hsFMsyUo2UfAFvhTs-70" vertex="1">
          <mxGeometry y="112" width="160" height="26" as="geometry" />
        </mxCell>
        <mxCell id="4E-hsFMsyUo2UfAFvhTs-78" value="User" style="swimlane;fontStyle=1;align=center;verticalAlign=top;childLayout=stackLayout;horizontal=1;startSize=26;horizontalStack=0;resizeParent=1;resizeParentMax=0;resizeLast=0;collapsible=1;marginBottom=0;" parent="1" vertex="1">
          <mxGeometry x="580" y="46" width="220" height="112" as="geometry" />
        </mxCell>
        <mxCell id="4E-hsFMsyUo2UfAFvhTs-48" value="+ Profile : Profile" style="text;strokeColor=none;fillColor=none;align=left;verticalAlign=top;spacingLeft=4;spacingRight=4;overflow=hidden;rotatable=0;points=[[0,0.5],[1,0.5]];portConstraint=eastwest;" parent="4E-hsFMsyUo2UfAFvhTs-78" vertex="1">
          <mxGeometry y="26" width="220" height="26" as="geometry" />
        </mxCell>
        <mxCell id="4E-hsFMsyUo2UfAFvhTs-49" value="+ Items : IEnumerable&lt;Item&gt;" style="text;strokeColor=none;fillColor=none;align=left;verticalAlign=top;spacingLeft=4;spacingRight=4;overflow=hidden;rotatable=0;points=[[0,0.5],[1,0.5]];portConstraint=eastwest;" parent="4E-hsFMsyUo2UfAFvhTs-78" vertex="1">
          <mxGeometry y="52" width="220" height="26" as="geometry" />
        </mxCell>
        <mxCell id="4E-hsFMsyUo2UfAFvhTs-83" value="" style="line;strokeWidth=1;fillColor=none;align=left;verticalAlign=middle;spacingTop=-1;spacingLeft=3;spacingRight=3;rotatable=0;labelPosition=right;points=[];portConstraint=eastwest;strokeColor=inherit;" parent="4E-hsFMsyUo2UfAFvhTs-78" vertex="1">
          <mxGeometry y="78" width="220" height="8" as="geometry" />
        </mxCell>
        <mxCell id="4E-hsFMsyUo2UfAFvhTs-84" value="+ static Create(): User" style="text;strokeColor=none;fillColor=none;align=left;verticalAlign=top;spacingLeft=4;spacingRight=4;overflow=hidden;rotatable=0;points=[[0,0.5],[1,0.5]];portConstraint=eastwest;" parent="4E-hsFMsyUo2UfAFvhTs-78" vertex="1">
          <mxGeometry y="86" width="220" height="26" as="geometry" />
        </mxCell>
        <mxCell id="4E-hsFMsyUo2UfAFvhTs-96" value="Base User" style="swimlane;fontStyle=1;align=center;verticalAlign=top;childLayout=stackLayout;horizontal=1;startSize=26;horizontalStack=0;resizeParent=1;resizeParentMax=0;resizeLast=0;collapsible=1;marginBottom=0;" parent="1" vertex="1">
          <mxGeometry x="580" y="-430" width="220" height="138" as="geometry" />
        </mxCell>
        <mxCell id="4E-hsFMsyUo2UfAFvhTs-97" value="+ CreatedOn: DateTime" style="text;strokeColor=none;fillColor=none;align=left;verticalAlign=top;spacingLeft=4;spacingRight=4;overflow=hidden;rotatable=0;points=[[0,0.5],[1,0.5]];portConstraint=eastwest;" parent="4E-hsFMsyUo2UfAFvhTs-96" vertex="1">
          <mxGeometry y="26" width="220" height="26" as="geometry" />
        </mxCell>
        <mxCell id="4E-hsFMsyUo2UfAFvhTs-98" value="+ ModifiedOn : DateTime?" style="text;strokeColor=none;fillColor=none;align=left;verticalAlign=top;spacingLeft=4;spacingRight=4;overflow=hidden;rotatable=0;points=[[0,0.5],[1,0.5]];portConstraint=eastwest;" parent="4E-hsFMsyUo2UfAFvhTs-96" vertex="1">
          <mxGeometry y="52" width="220" height="26" as="geometry" />
        </mxCell>
        <mxCell id="4E-hsFMsyUo2UfAFvhTs-104" value="+ CreatedBy : string?" style="text;strokeColor=none;fillColor=none;align=left;verticalAlign=top;spacingLeft=4;spacingRight=4;overflow=hidden;rotatable=0;points=[[0,0.5],[1,0.5]];portConstraint=eastwest;" parent="4E-hsFMsyUo2UfAFvhTs-96" vertex="1">
          <mxGeometry y="78" width="220" height="26" as="geometry" />
        </mxCell>
        <mxCell id="4E-hsFMsyUo2UfAFvhTs-105" value="+ ModofiedBy : string?" style="text;strokeColor=none;fillColor=none;align=left;verticalAlign=top;spacingLeft=4;spacingRight=4;overflow=hidden;rotatable=0;points=[[0,0.5],[1,0.5]];portConstraint=eastwest;" parent="4E-hsFMsyUo2UfAFvhTs-96" vertex="1">
          <mxGeometry y="104" width="220" height="26" as="geometry" />
        </mxCell>
        <mxCell id="4E-hsFMsyUo2UfAFvhTs-99" value="" style="line;strokeWidth=1;fillColor=none;align=left;verticalAlign=middle;spacingTop=-1;spacingLeft=3;spacingRight=3;rotatable=0;labelPosition=right;points=[];portConstraint=eastwest;strokeColor=inherit;" parent="4E-hsFMsyUo2UfAFvhTs-96" vertex="1">
          <mxGeometry y="130" width="220" height="8" as="geometry" />
        </mxCell>
        <mxCell id="4E-hsFMsyUo2UfAFvhTs-106" value="Identity User" style="swimlane;fontStyle=1;align=center;verticalAlign=top;childLayout=stackLayout;horizontal=1;startSize=26;horizontalStack=0;resizeParent=1;resizeParentMax=0;resizeLast=0;collapsible=1;marginBottom=0;" parent="1" vertex="1">
          <mxGeometry x="920" y="-469" width="220" height="216" as="geometry" />
        </mxCell>
        <mxCell id="4E-hsFMsyUo2UfAFvhTs-107" value="+ Id: Guid" style="text;strokeColor=none;fillColor=none;align=left;verticalAlign=top;spacingLeft=4;spacingRight=4;overflow=hidden;rotatable=0;points=[[0,0.5],[1,0.5]];portConstraint=eastwest;" parent="4E-hsFMsyUo2UfAFvhTs-106" vertex="1">
          <mxGeometry y="26" width="220" height="26" as="geometry" />
        </mxCell>
        <mxCell id="4E-hsFMsyUo2UfAFvhTs-108" value="+ Username: string" style="text;strokeColor=none;fillColor=none;align=left;verticalAlign=top;spacingLeft=4;spacingRight=4;overflow=hidden;rotatable=0;points=[[0,0.5],[1,0.5]];portConstraint=eastwest;" parent="4E-hsFMsyUo2UfAFvhTs-106" vertex="1">
          <mxGeometry y="52" width="220" height="26" as="geometry" />
        </mxCell>
        <mxCell id="4E-hsFMsyUo2UfAFvhTs-109" value="+ Email: string" style="text;strokeColor=none;fillColor=none;align=left;verticalAlign=top;spacingLeft=4;spacingRight=4;overflow=hidden;rotatable=0;points=[[0,0.5],[1,0.5]];portConstraint=eastwest;" parent="4E-hsFMsyUo2UfAFvhTs-106" vertex="1">
          <mxGeometry y="78" width="220" height="26" as="geometry" />
        </mxCell>
        <mxCell id="4E-hsFMsyUo2UfAFvhTs-156" value="+ EmailConfirmed: bool" style="text;strokeColor=none;fillColor=none;align=left;verticalAlign=top;spacingLeft=4;spacingRight=4;overflow=hidden;rotatable=0;points=[[0,0.5],[1,0.5]];portConstraint=eastwest;" parent="4E-hsFMsyUo2UfAFvhTs-106" vertex="1">
          <mxGeometry y="104" width="220" height="26" as="geometry" />
        </mxCell>
        <mxCell id="4E-hsFMsyUo2UfAFvhTs-157" value="+ Email: string" style="text;strokeColor=none;fillColor=none;align=left;verticalAlign=top;spacingLeft=4;spacingRight=4;overflow=hidden;rotatable=0;points=[[0,0.5],[1,0.5]];portConstraint=eastwest;" parent="4E-hsFMsyUo2UfAFvhTs-106" vertex="1">
          <mxGeometry y="130" width="220" height="26" as="geometry" />
        </mxCell>
        <mxCell id="4E-hsFMsyUo2UfAFvhTs-110" value="+ PhoneNumber: string" style="text;strokeColor=none;fillColor=none;align=left;verticalAlign=top;spacingLeft=4;spacingRight=4;overflow=hidden;rotatable=0;points=[[0,0.5],[1,0.5]];portConstraint=eastwest;" parent="4E-hsFMsyUo2UfAFvhTs-106" vertex="1">
          <mxGeometry y="156" width="220" height="26" as="geometry" />
        </mxCell>
        <mxCell id="4E-hsFMsyUo2UfAFvhTs-158" value="+ PhoneNumberConfirmed: bool" style="text;strokeColor=none;fillColor=none;align=left;verticalAlign=top;spacingLeft=4;spacingRight=4;overflow=hidden;rotatable=0;points=[[0,0.5],[1,0.5]];portConstraint=eastwest;" parent="4E-hsFMsyUo2UfAFvhTs-106" vertex="1">
          <mxGeometry y="182" width="220" height="26" as="geometry" />
        </mxCell>
        <mxCell id="4E-hsFMsyUo2UfAFvhTs-111" value="" style="line;strokeWidth=1;fillColor=none;align=left;verticalAlign=middle;spacingTop=-1;spacingLeft=3;spacingRight=3;rotatable=0;labelPosition=right;points=[];portConstraint=eastwest;strokeColor=inherit;" parent="4E-hsFMsyUo2UfAFvhTs-106" vertex="1">
          <mxGeometry y="208" width="220" height="8" as="geometry" />
        </mxCell>
        <mxCell id="4E-hsFMsyUo2UfAFvhTs-115" value="" style="endArrow=diamondThin;endFill=1;endSize=24;html=1;rounded=0;entryX=0.503;entryY=1.126;entryDx=0;entryDy=0;entryPerimeter=0;" parent="1" source="4E-hsFMsyUo2UfAFvhTs-151" target="4E-hsFMsyUo2UfAFvhTs-84" edge="1">
          <mxGeometry width="160" relative="1" as="geometry">
            <mxPoint x="684.4000000000001" y="267.0880000000002" as="sourcePoint" />
            <mxPoint x="570" y="270" as="targetPoint" />
          </mxGeometry>
        </mxCell>
        <mxCell id="4E-hsFMsyUo2UfAFvhTs-116" value="1" style="edgeLabel;html=1;align=center;verticalAlign=middle;resizable=0;points=[];" parent="4E-hsFMsyUo2UfAFvhTs-115" vertex="1" connectable="0">
          <mxGeometry x="-0.2011" y="2" relative="1" as="geometry">
            <mxPoint x="-15" y="25" as="offset" />
          </mxGeometry>
        </mxCell>
        <mxCell id="4E-hsFMsyUo2UfAFvhTs-117" value="" style="endArrow=diamondThin;endFill=0;endSize=24;html=1;rounded=0;entryX=0;entryY=0.5;entryDx=0;entryDy=0;exitX=1;exitY=0.5;exitDx=0;exitDy=0;" parent="1" source="4E-hsFMsyUo2UfAFvhTs-76" target="4E-hsFMsyUo2UfAFvhTs-49" edge="1">
          <mxGeometry width="160" relative="1" as="geometry">
            <mxPoint x="240" y="220" as="sourcePoint" />
            <mxPoint x="400" y="220" as="targetPoint" />
          </mxGeometry>
        </mxCell>
        <mxCell id="4E-hsFMsyUo2UfAFvhTs-118" value="0..*" style="edgeLabel;html=1;align=center;verticalAlign=middle;resizable=0;points=[];" parent="4E-hsFMsyUo2UfAFvhTs-117" vertex="1" connectable="0">
          <mxGeometry x="-0.6" y="1" relative="1" as="geometry">
            <mxPoint x="-42" y="14" as="offset" />
          </mxGeometry>
        </mxCell>
        <mxCell id="4E-hsFMsyUo2UfAFvhTs-119" value="Extends" style="endArrow=block;endSize=16;endFill=0;html=1;rounded=0;" parent="1" source="4E-hsFMsyUo2UfAFvhTs-78" target="4E-hsFMsyUo2UfAFvhTs-96" edge="1">
          <mxGeometry width="160" relative="1" as="geometry">
            <mxPoint x="720" y="250" as="sourcePoint" />
            <mxPoint x="880" y="250" as="targetPoint" />
          </mxGeometry>
        </mxCell>
        <mxCell id="4E-hsFMsyUo2UfAFvhTs-120" value="Extends" style="endArrow=block;endSize=16;endFill=0;html=1;rounded=0;" parent="1" source="4E-hsFMsyUo2UfAFvhTs-96" target="4E-hsFMsyUo2UfAFvhTs-106" edge="1">
          <mxGeometry width="160" relative="1" as="geometry">
            <mxPoint x="1040" y="265.03999999999996" as="sourcePoint" />
            <mxPoint x="1180" y="259.9999999999999" as="targetPoint" />
          </mxGeometry>
        </mxCell>
        <mxCell id="4E-hsFMsyUo2UfAFvhTs-121" value="Deletable Entity" style="swimlane;fontStyle=1;align=center;verticalAlign=top;childLayout=stackLayout;horizontal=1;startSize=26;horizontalStack=0;resizeParent=1;resizeParentMax=0;resizeLast=0;collapsible=1;marginBottom=0;" parent="1" vertex="1">
          <mxGeometry x="140" y="-200" width="220" height="112" as="geometry" />
        </mxCell>
        <mxCell id="4E-hsFMsyUo2UfAFvhTs-122" value="+ DeletedOn: DateTime?" style="text;strokeColor=none;fillColor=none;align=left;verticalAlign=top;spacingLeft=4;spacingRight=4;overflow=hidden;rotatable=0;points=[[0,0.5],[1,0.5]];portConstraint=eastwest;" parent="4E-hsFMsyUo2UfAFvhTs-121" vertex="1">
          <mxGeometry y="26" width="220" height="26" as="geometry" />
        </mxCell>
        <mxCell id="4E-hsFMsyUo2UfAFvhTs-124" value="+ DeletedBy : string?" style="text;strokeColor=none;fillColor=none;align=left;verticalAlign=top;spacingLeft=4;spacingRight=4;overflow=hidden;rotatable=0;points=[[0,0.5],[1,0.5]];portConstraint=eastwest;" parent="4E-hsFMsyUo2UfAFvhTs-121" vertex="1">
          <mxGeometry y="52" width="220" height="26" as="geometry" />
        </mxCell>
        <mxCell id="4E-hsFMsyUo2UfAFvhTs-125" value="+ isDeleted : bool" style="text;strokeColor=none;fillColor=none;align=left;verticalAlign=top;spacingLeft=4;spacingRight=4;overflow=hidden;rotatable=0;points=[[0,0.5],[1,0.5]];portConstraint=eastwest;" parent="4E-hsFMsyUo2UfAFvhTs-121" vertex="1">
          <mxGeometry y="78" width="220" height="26" as="geometry" />
        </mxCell>
        <mxCell id="4E-hsFMsyUo2UfAFvhTs-126" value="" style="line;strokeWidth=1;fillColor=none;align=left;verticalAlign=middle;spacingTop=-1;spacingLeft=3;spacingRight=3;rotatable=0;labelPosition=right;points=[];portConstraint=eastwest;strokeColor=inherit;" parent="4E-hsFMsyUo2UfAFvhTs-121" vertex="1">
          <mxGeometry y="104" width="220" height="8" as="geometry" />
        </mxCell>
        <mxCell id="4E-hsFMsyUo2UfAFvhTs-127" value="Extends" style="endArrow=block;endSize=16;endFill=0;html=1;rounded=0;" parent="1" source="4E-hsFMsyUo2UfAFvhTs-70" target="4E-hsFMsyUo2UfAFvhTs-121" edge="1">
          <mxGeometry width="160" relative="1" as="geometry">
            <mxPoint x="180" y="-34.960000000000235" as="sourcePoint" />
            <mxPoint x="320" y="-40.0000000000002" as="targetPoint" />
          </mxGeometry>
        </mxCell>
        <mxCell id="4E-hsFMsyUo2UfAFvhTs-133" value="Base Entity" style="swimlane;fontStyle=1;align=center;verticalAlign=top;childLayout=stackLayout;horizontal=1;startSize=26;horizontalStack=0;resizeParent=1;resizeParentMax=0;resizeLast=0;collapsible=1;marginBottom=0;" parent="1" vertex="1">
          <mxGeometry x="270" y="-430" width="220" height="164" as="geometry" />
        </mxCell>
        <mxCell id="4E-hsFMsyUo2UfAFvhTs-71" value="+ Id : Guid" style="text;strokeColor=none;fillColor=none;align=left;verticalAlign=top;spacingLeft=4;spacingRight=4;overflow=hidden;rotatable=0;points=[[0,0.5],[1,0.5]];portConstraint=eastwest;" parent="4E-hsFMsyUo2UfAFvhTs-133" vertex="1">
          <mxGeometry y="26" width="220" height="26" as="geometry" />
        </mxCell>
        <mxCell id="4E-hsFMsyUo2UfAFvhTs-134" value="+ CreatedOn: DateTime" style="text;strokeColor=none;fillColor=none;align=left;verticalAlign=top;spacingLeft=4;spacingRight=4;overflow=hidden;rotatable=0;points=[[0,0.5],[1,0.5]];portConstraint=eastwest;" parent="4E-hsFMsyUo2UfAFvhTs-133" vertex="1">
          <mxGeometry y="52" width="220" height="26" as="geometry" />
        </mxCell>
        <mxCell id="4E-hsFMsyUo2UfAFvhTs-135" value="+ ModifiedOn? : DateTime" style="text;strokeColor=none;fillColor=none;align=left;verticalAlign=top;spacingLeft=4;spacingRight=4;overflow=hidden;rotatable=0;points=[[0,0.5],[1,0.5]];portConstraint=eastwest;" parent="4E-hsFMsyUo2UfAFvhTs-133" vertex="1">
          <mxGeometry y="78" width="220" height="26" as="geometry" />
        </mxCell>
        <mxCell id="4E-hsFMsyUo2UfAFvhTs-136" value="+ CreatedBy? : string" style="text;strokeColor=none;fillColor=none;align=left;verticalAlign=top;spacingLeft=4;spacingRight=4;overflow=hidden;rotatable=0;points=[[0,0.5],[1,0.5]];portConstraint=eastwest;" parent="4E-hsFMsyUo2UfAFvhTs-133" vertex="1">
          <mxGeometry y="104" width="220" height="26" as="geometry" />
        </mxCell>
        <mxCell id="4E-hsFMsyUo2UfAFvhTs-137" value="+ ModofiedBy? : string" style="text;strokeColor=none;fillColor=none;align=left;verticalAlign=top;spacingLeft=4;spacingRight=4;overflow=hidden;rotatable=0;points=[[0,0.5],[1,0.5]];portConstraint=eastwest;" parent="4E-hsFMsyUo2UfAFvhTs-133" vertex="1">
          <mxGeometry y="130" width="220" height="26" as="geometry" />
        </mxCell>
        <mxCell id="4E-hsFMsyUo2UfAFvhTs-138" value="" style="line;strokeWidth=1;fillColor=none;align=left;verticalAlign=middle;spacingTop=-1;spacingLeft=3;spacingRight=3;rotatable=0;labelPosition=right;points=[];portConstraint=eastwest;strokeColor=inherit;" parent="4E-hsFMsyUo2UfAFvhTs-133" vertex="1">
          <mxGeometry y="156" width="220" height="8" as="geometry" />
        </mxCell>
        <mxCell id="4E-hsFMsyUo2UfAFvhTs-139" value="Extends" style="endArrow=block;endSize=16;endFill=0;html=1;rounded=0;" parent="1" source="4E-hsFMsyUo2UfAFvhTs-121" target="4E-hsFMsyUo2UfAFvhTs-133" edge="1">
          <mxGeometry width="160" relative="1" as="geometry">
            <mxPoint x="490.0042028985508" y="-184" as="sourcePoint" />
            <mxPoint x="560.0042028985508" y="-322" as="targetPoint" />
          </mxGeometry>
        </mxCell>
        <mxCell id="4E-hsFMsyUo2UfAFvhTs-140" value="IEntity" style="swimlane;fontStyle=1;align=center;verticalAlign=top;childLayout=stackLayout;horizontal=1;startSize=26;horizontalStack=0;resizeParent=1;resizeParentMax=0;resizeLast=0;collapsible=1;marginBottom=0;" parent="1" vertex="1">
          <mxGeometry x="450" y="-710" width="220" height="138" as="geometry" />
        </mxCell>
        <mxCell id="4E-hsFMsyUo2UfAFvhTs-141" value="+ CreatedOn: DateTime" style="text;strokeColor=none;fillColor=none;align=left;verticalAlign=top;spacingLeft=4;spacingRight=4;overflow=hidden;rotatable=0;points=[[0,0.5],[1,0.5]];portConstraint=eastwest;" parent="4E-hsFMsyUo2UfAFvhTs-140" vertex="1">
          <mxGeometry y="26" width="220" height="26" as="geometry" />
        </mxCell>
        <mxCell id="4E-hsFMsyUo2UfAFvhTs-142" value="+ ModifiedOn? : DateTime" style="text;strokeColor=none;fillColor=none;align=left;verticalAlign=top;spacingLeft=4;spacingRight=4;overflow=hidden;rotatable=0;points=[[0,0.5],[1,0.5]];portConstraint=eastwest;" parent="4E-hsFMsyUo2UfAFvhTs-140" vertex="1">
          <mxGeometry y="52" width="220" height="26" as="geometry" />
        </mxCell>
        <mxCell id="4E-hsFMsyUo2UfAFvhTs-143" value="+ CreatedBy? : string" style="text;strokeColor=none;fillColor=none;align=left;verticalAlign=top;spacingLeft=4;spacingRight=4;overflow=hidden;rotatable=0;points=[[0,0.5],[1,0.5]];portConstraint=eastwest;" parent="4E-hsFMsyUo2UfAFvhTs-140" vertex="1">
          <mxGeometry y="78" width="220" height="26" as="geometry" />
        </mxCell>
        <mxCell id="4E-hsFMsyUo2UfAFvhTs-144" value="+ ModofiedBy? : string" style="text;strokeColor=none;fillColor=none;align=left;verticalAlign=top;spacingLeft=4;spacingRight=4;overflow=hidden;rotatable=0;points=[[0,0.5],[1,0.5]];portConstraint=eastwest;" parent="4E-hsFMsyUo2UfAFvhTs-140" vertex="1">
          <mxGeometry y="104" width="220" height="26" as="geometry" />
        </mxCell>
        <mxCell id="4E-hsFMsyUo2UfAFvhTs-145" value="" style="line;strokeWidth=1;fillColor=none;align=left;verticalAlign=middle;spacingTop=-1;spacingLeft=3;spacingRight=3;rotatable=0;labelPosition=right;points=[];portConstraint=eastwest;strokeColor=inherit;" parent="4E-hsFMsyUo2UfAFvhTs-140" vertex="1">
          <mxGeometry y="130" width="220" height="8" as="geometry" />
        </mxCell>
        <mxCell id="4E-hsFMsyUo2UfAFvhTs-147" value="" style="endArrow=block;dashed=1;endFill=0;endSize=12;html=1;rounded=0;" parent="1" source="4E-hsFMsyUo2UfAFvhTs-133" target="4E-hsFMsyUo2UfAFvhTs-140" edge="1">
          <mxGeometry width="160" relative="1" as="geometry">
            <mxPoint x="250" y="-470" as="sourcePoint" />
            <mxPoint x="410" y="-470" as="targetPoint" />
          </mxGeometry>
        </mxCell>
        <mxCell id="4E-hsFMsyUo2UfAFvhTs-148" value="Implements" style="edgeLabel;html=1;align=center;verticalAlign=middle;resizable=0;points=[];" parent="4E-hsFMsyUo2UfAFvhTs-147" vertex="1" connectable="0">
          <mxGeometry x="-0.1843" y="-5" relative="1" as="geometry">
            <mxPoint as="offset" />
          </mxGeometry>
        </mxCell>
        <mxCell id="4E-hsFMsyUo2UfAFvhTs-149" value="" style="endArrow=block;dashed=1;endFill=0;endSize=12;html=1;rounded=0;" parent="1" source="4E-hsFMsyUo2UfAFvhTs-96" target="4E-hsFMsyUo2UfAFvhTs-140" edge="1">
          <mxGeometry width="160" relative="1" as="geometry">
            <mxPoint x="820.0011111111108" y="-448" as="sourcePoint" />
            <mxPoint x="961.7788888888887" y="-580" as="targetPoint" />
          </mxGeometry>
        </mxCell>
        <mxCell id="4E-hsFMsyUo2UfAFvhTs-150" value="Implements" style="edgeLabel;html=1;align=center;verticalAlign=middle;resizable=0;points=[];" parent="4E-hsFMsyUo2UfAFvhTs-149" vertex="1" connectable="0">
          <mxGeometry x="-0.1843" y="-5" relative="1" as="geometry">
            <mxPoint as="offset" />
          </mxGeometry>
        </mxCell>
        <mxCell id="4E-hsFMsyUo2UfAFvhTs-151" value="Profile" style="swimlane;fontStyle=1;align=center;verticalAlign=top;childLayout=stackLayout;horizontal=1;startSize=26;horizontalStack=0;resizeParent=1;resizeParentMax=0;resizeLast=0;collapsible=1;marginBottom=0;" parent="1" vertex="1">
          <mxGeometry x="585" y="290" width="220" height="112" as="geometry" />
        </mxCell>
        <mxCell id="4E-hsFMsyUo2UfAFvhTs-152" value="+ Name: string?" style="text;strokeColor=none;fillColor=none;align=left;verticalAlign=top;spacingLeft=4;spacingRight=4;overflow=hidden;rotatable=0;points=[[0,0.5],[1,0.5]];portConstraint=eastwest;" parent="4E-hsFMsyUo2UfAFvhTs-151" vertex="1">
          <mxGeometry y="26" width="220" height="26" as="geometry" />
        </mxCell>
        <mxCell id="4E-hsFMsyUo2UfAFvhTs-153" value="+ MainPhotoUrl: string?" style="text;strokeColor=none;fillColor=none;align=left;verticalAlign=top;spacingLeft=4;spacingRight=4;overflow=hidden;rotatable=0;points=[[0,0.5],[1,0.5]];portConstraint=eastwest;" parent="4E-hsFMsyUo2UfAFvhTs-151" vertex="1">
          <mxGeometry y="52" width="220" height="26" as="geometry" />
        </mxCell>
        <mxCell id="4E-hsFMsyUo2UfAFvhTs-154" value="" style="line;strokeWidth=1;fillColor=none;align=left;verticalAlign=middle;spacingTop=-1;spacingLeft=3;spacingRight=3;rotatable=0;labelPosition=right;points=[];portConstraint=eastwest;strokeColor=inherit;" parent="4E-hsFMsyUo2UfAFvhTs-151" vertex="1">
          <mxGeometry y="78" width="220" height="8" as="geometry" />
        </mxCell>
        <mxCell id="4E-hsFMsyUo2UfAFvhTs-155" value="+ static Create(): Profile" style="text;strokeColor=none;fillColor=none;align=left;verticalAlign=top;spacingLeft=4;spacingRight=4;overflow=hidden;rotatable=0;points=[[0,0.5],[1,0.5]];portConstraint=eastwest;" parent="4E-hsFMsyUo2UfAFvhTs-151" vertex="1">
          <mxGeometry y="86" width="220" height="26" as="geometry" />
        </mxCell>
      </root>
    </mxGraphModel>
  </diagram>
</mxfile>
